<svg id="visual" viewBox="0 0 900 600" width="900" height="600" xmlns="http://www.w3.org/2000/svg" xmlns:xlink="http://www.w3.org/1999/xlink" version="1.1"><path d="M0 161L25 147.7C50 134.3 100 107.7 150 107.2C200 106.7 250 132.3 300 144.7C350 157 400 156 450 145.2C500 134.3 550 113.7 600 114C650 114.3 700 135.7 750 135.2C800 134.7 850 112.3 875 101.2L900 90L900 0L875 0C850 0 800 0 750 0C700 0 650 0 600 0C550 0 500 0 450 0C400 0 350 0 300 0C250 0 200 0 150 0C100 0 50 0 25 0L0 0Z" fill="#ff5b00" stroke-linecap="round" stroke-linejoin="miter"></path></svg>